<mxfile host="app.diagrams.net" agent="Mozilla/5.0 (Windows NT 10.0; Win64; x64) AppleWebKit/537.36 (KHTML, like Gecko) Chrome/128.0.0.0 Safari/537.36" version="24.7.13">
  <diagram name="PÃ¡gina-1" id="qYFQQ07uM7xjKMAV4RYQ">
    <mxGraphModel dx="652" dy="341" grid="1" gridSize="10" guides="1" tooltips="1" connect="1" arrows="1" fold="1" page="1" pageScale="1" pageWidth="1169" pageHeight="1654" math="0" shadow="0">
      <root>
        <mxCell id="0" />
        <mxCell id="1" parent="0" />
        <mxCell id="V1irA5ALW46rOHireJx6-1" value="&lt;font style=&quot;font-size: 22px;&quot;&gt;Modelo Conceitual&lt;/font&gt;" style="text;html=1;align=center;verticalAlign=middle;whiteSpace=wrap;rounded=0;fillColor=#f8cecc;strokeColor=#b85450;" vertex="1" parent="1">
          <mxGeometry x="90" y="50" width="250" height="30" as="geometry" />
        </mxCell>
        <mxCell id="V1irA5ALW46rOHireJx6-2" value="&lt;font style=&quot;font-size: 18px;&quot;&gt;Exemplo 1&lt;/font&gt;" style="text;html=1;align=center;verticalAlign=middle;whiteSpace=wrap;rounded=0;" vertex="1" parent="1">
          <mxGeometry x="20" y="20" width="100" height="30" as="geometry" />
        </mxCell>
        <mxCell id="V1irA5ALW46rOHireJx6-6" value="cliente" style="whiteSpace=wrap;html=1;align=center;" vertex="1" parent="1">
          <mxGeometry x="100" y="210" width="100" height="40" as="geometry" />
        </mxCell>
        <mxCell id="V1irA5ALW46rOHireJx6-7" value="projeto" style="whiteSpace=wrap;html=1;align=center;" vertex="1" parent="1">
          <mxGeometry x="450" y="210" width="100" height="40" as="geometry" />
        </mxCell>
        <mxCell id="V1irA5ALW46rOHireJx6-9" value="funcionario" style="whiteSpace=wrap;html=1;align=center;" vertex="1" parent="1">
          <mxGeometry x="100" y="320" width="100" height="40" as="geometry" />
        </mxCell>
        <mxCell id="V1irA5ALW46rOHireJx6-13" style="edgeStyle=orthogonalEdgeStyle;rounded=0;orthogonalLoop=1;jettySize=auto;html=1;exitX=0.5;exitY=1;exitDx=0;exitDy=0;" edge="1" parent="1" target="V1irA5ALW46rOHireJx6-6">
          <mxGeometry relative="1" as="geometry">
            <mxPoint x="80" y="180" as="sourcePoint" />
          </mxGeometry>
        </mxCell>
        <mxCell id="V1irA5ALW46rOHireJx6-14" style="edgeStyle=orthogonalEdgeStyle;rounded=0;orthogonalLoop=1;jettySize=auto;html=1;exitX=0;exitY=1;exitDx=0;exitDy=0;entryX=0.75;entryY=0;entryDx=0;entryDy=0;" edge="1" parent="1" source="V1irA5ALW46rOHireJx6-12" target="V1irA5ALW46rOHireJx6-6">
          <mxGeometry relative="1" as="geometry" />
        </mxCell>
        <mxCell id="V1irA5ALW46rOHireJx6-12" value="nome" style="ellipse;whiteSpace=wrap;html=1;align=center;" vertex="1" parent="1">
          <mxGeometry x="170" y="160" width="100" height="40" as="geometry" />
        </mxCell>
        <mxCell id="V1irA5ALW46rOHireJx6-16" value="cpf" style="ellipse;whiteSpace=wrap;html=1;align=center;fontStyle=4;" vertex="1" parent="1">
          <mxGeometry x="30" y="140" width="100" height="40" as="geometry" />
        </mxCell>
        <mxCell id="V1irA5ALW46rOHireJx6-17" value="codigo" style="ellipse;whiteSpace=wrap;html=1;align=center;fontStyle=4;" vertex="1" parent="1">
          <mxGeometry x="370" y="150" width="100" height="40" as="geometry" />
        </mxCell>
        <mxCell id="V1irA5ALW46rOHireJx6-18" value="data" style="ellipse;whiteSpace=wrap;html=1;align=center;" vertex="1" parent="1">
          <mxGeometry x="480" y="130" width="100" height="40" as="geometry" />
        </mxCell>
        <mxCell id="V1irA5ALW46rOHireJx6-19" value="valor" style="ellipse;whiteSpace=wrap;html=1;align=center;" vertex="1" parent="1">
          <mxGeometry x="570" y="160" width="100" height="40" as="geometry" />
        </mxCell>
        <mxCell id="V1irA5ALW46rOHireJx6-20" style="edgeStyle=orthogonalEdgeStyle;rounded=0;orthogonalLoop=1;jettySize=auto;html=1;exitX=1;exitY=1;exitDx=0;exitDy=0;entryX=0.156;entryY=0.025;entryDx=0;entryDy=0;entryPerimeter=0;" edge="1" parent="1" source="V1irA5ALW46rOHireJx6-17" target="V1irA5ALW46rOHireJx6-7">
          <mxGeometry relative="1" as="geometry" />
        </mxCell>
        <mxCell id="V1irA5ALW46rOHireJx6-21" style="edgeStyle=orthogonalEdgeStyle;rounded=0;orthogonalLoop=1;jettySize=auto;html=1;exitX=0;exitY=1;exitDx=0;exitDy=0;entryX=0.43;entryY=-0.046;entryDx=0;entryDy=0;entryPerimeter=0;" edge="1" parent="1" source="V1irA5ALW46rOHireJx6-18" target="V1irA5ALW46rOHireJx6-7">
          <mxGeometry relative="1" as="geometry" />
        </mxCell>
        <mxCell id="V1irA5ALW46rOHireJx6-22" style="edgeStyle=orthogonalEdgeStyle;rounded=0;orthogonalLoop=1;jettySize=auto;html=1;exitX=0;exitY=0.5;exitDx=0;exitDy=0;entryX=0.756;entryY=0.096;entryDx=0;entryDy=0;entryPerimeter=0;" edge="1" parent="1" source="V1irA5ALW46rOHireJx6-19" target="V1irA5ALW46rOHireJx6-7">
          <mxGeometry relative="1" as="geometry" />
        </mxCell>
        <mxCell id="V1irA5ALW46rOHireJx6-23" value="solicitar" style="shape=rhombus;perimeter=rhombusPerimeter;whiteSpace=wrap;html=1;align=center;" vertex="1" parent="1">
          <mxGeometry x="260" y="200" width="120" height="60" as="geometry" />
        </mxCell>
        <mxCell id="V1irA5ALW46rOHireJx6-25" value="" style="endArrow=none;html=1;rounded=0;" edge="1" parent="1">
          <mxGeometry relative="1" as="geometry">
            <mxPoint x="200" y="229.66" as="sourcePoint" />
            <mxPoint x="260" y="230" as="targetPoint" />
          </mxGeometry>
        </mxCell>
        <mxCell id="V1irA5ALW46rOHireJx6-26" value="" style="endArrow=none;html=1;rounded=0;entryX=0;entryY=0.5;entryDx=0;entryDy=0;" edge="1" parent="1" target="V1irA5ALW46rOHireJx6-7">
          <mxGeometry relative="1" as="geometry">
            <mxPoint x="380" y="229.66" as="sourcePoint" />
            <mxPoint x="440" y="230" as="targetPoint" />
          </mxGeometry>
        </mxCell>
        <mxCell id="V1irA5ALW46rOHireJx6-28" value="1" style="text;strokeColor=none;fillColor=none;spacingLeft=4;spacingRight=4;overflow=hidden;rotatable=0;points=[[0,0.5],[1,0.5]];portConstraint=eastwest;fontSize=12;whiteSpace=wrap;html=1;" vertex="1" parent="1">
          <mxGeometry x="200" y="210" width="20" height="20" as="geometry" />
        </mxCell>
        <mxCell id="V1irA5ALW46rOHireJx6-30" value="N" style="text;strokeColor=none;fillColor=none;spacingLeft=4;spacingRight=4;overflow=hidden;rotatable=0;points=[[0,0.5],[1,0.5]];portConstraint=eastwest;fontSize=12;whiteSpace=wrap;html=1;" vertex="1" parent="1">
          <mxGeometry x="430" y="210" width="20" height="20" as="geometry" />
        </mxCell>
        <mxCell id="V1irA5ALW46rOHireJx6-31" value="nome" style="ellipse;whiteSpace=wrap;html=1;align=center;" vertex="1" parent="1">
          <mxGeometry x="160" y="400" width="100" height="40" as="geometry" />
        </mxCell>
        <mxCell id="V1irA5ALW46rOHireJx6-33" style="edgeStyle=orthogonalEdgeStyle;rounded=0;orthogonalLoop=1;jettySize=auto;html=1;exitX=1;exitY=0;exitDx=0;exitDy=0;entryX=0.25;entryY=1;entryDx=0;entryDy=0;" edge="1" parent="1" source="V1irA5ALW46rOHireJx6-32" target="V1irA5ALW46rOHireJx6-9">
          <mxGeometry relative="1" as="geometry" />
        </mxCell>
        <mxCell id="V1irA5ALW46rOHireJx6-32" value="cpf" style="ellipse;whiteSpace=wrap;html=1;align=center;fontStyle=4;" vertex="1" parent="1">
          <mxGeometry x="20" y="380" width="100" height="40" as="geometry" />
        </mxCell>
        <mxCell id="V1irA5ALW46rOHireJx6-34" style="edgeStyle=orthogonalEdgeStyle;rounded=0;orthogonalLoop=1;jettySize=auto;html=1;exitX=0;exitY=0;exitDx=0;exitDy=0;entryX=0.628;entryY=1.071;entryDx=0;entryDy=0;entryPerimeter=0;" edge="1" parent="1" source="V1irA5ALW46rOHireJx6-31" target="V1irA5ALW46rOHireJx6-9">
          <mxGeometry relative="1" as="geometry" />
        </mxCell>
        <mxCell id="V1irA5ALW46rOHireJx6-35" value="analisar" style="shape=rhombus;perimeter=rhombusPerimeter;whiteSpace=wrap;html=1;align=center;" vertex="1" parent="1">
          <mxGeometry x="240" y="310" width="120" height="60" as="geometry" />
        </mxCell>
        <mxCell id="V1irA5ALW46rOHireJx6-37" value="" style="endArrow=none;html=1;rounded=0;entryX=0;entryY=0.5;entryDx=0;entryDy=0;" edge="1" parent="1" target="V1irA5ALW46rOHireJx6-35">
          <mxGeometry relative="1" as="geometry">
            <mxPoint x="200" y="339.58" as="sourcePoint" />
            <mxPoint x="360" y="339.58" as="targetPoint" />
          </mxGeometry>
        </mxCell>
        <mxCell id="V1irA5ALW46rOHireJx6-38" value="" style="endArrow=none;html=1;rounded=0;entryX=0;entryY=1;entryDx=0;entryDy=0;exitX=1;exitY=0.5;exitDx=0;exitDy=0;" edge="1" parent="1" source="V1irA5ALW46rOHireJx6-35" target="V1irA5ALW46rOHireJx6-7">
          <mxGeometry relative="1" as="geometry">
            <mxPoint x="350" y="339.58" as="sourcePoint" />
            <mxPoint x="510" y="339.58" as="targetPoint" />
          </mxGeometry>
        </mxCell>
        <mxCell id="V1irA5ALW46rOHireJx6-39" value="setor" style="whiteSpace=wrap;html=1;align=center;" vertex="1" parent="1">
          <mxGeometry x="450" y="420" width="100" height="40" as="geometry" />
        </mxCell>
        <mxCell id="V1irA5ALW46rOHireJx6-40" value="pertence" style="shape=rhombus;perimeter=rhombusPerimeter;whiteSpace=wrap;html=1;align=center;" vertex="1" parent="1">
          <mxGeometry x="294" y="410" width="120" height="60" as="geometry" />
        </mxCell>
        <mxCell id="V1irA5ALW46rOHireJx6-41" value="" style="endArrow=none;html=1;rounded=0;entryX=0;entryY=0.5;entryDx=0;entryDy=0;" edge="1" parent="1" target="V1irA5ALW46rOHireJx6-40">
          <mxGeometry relative="1" as="geometry">
            <mxPoint x="200" y="339.5" as="sourcePoint" />
            <mxPoint x="360" y="339.5" as="targetPoint" />
          </mxGeometry>
        </mxCell>
        <mxCell id="V1irA5ALW46rOHireJx6-42" value="" style="endArrow=none;html=1;rounded=0;" edge="1" parent="1">
          <mxGeometry relative="1" as="geometry">
            <mxPoint x="410" y="439.5" as="sourcePoint" />
            <mxPoint x="450" y="440" as="targetPoint" />
          </mxGeometry>
        </mxCell>
        <mxCell id="V1irA5ALW46rOHireJx6-43" value="N" style="text;strokeColor=none;fillColor=none;spacingLeft=4;spacingRight=4;overflow=hidden;rotatable=0;points=[[0,0.5],[1,0.5]];portConstraint=eastwest;fontSize=12;whiteSpace=wrap;html=1;" vertex="1" parent="1">
          <mxGeometry x="440" y="260" width="20" height="20" as="geometry" />
        </mxCell>
        <mxCell id="V1irA5ALW46rOHireJx6-44" value="N" style="text;strokeColor=none;fillColor=none;spacingLeft=4;spacingRight=4;overflow=hidden;rotatable=0;points=[[0,0.5],[1,0.5]];portConstraint=eastwest;fontSize=12;whiteSpace=wrap;html=1;" vertex="1" parent="1">
          <mxGeometry x="200" y="360" width="20" height="20" as="geometry" />
        </mxCell>
        <mxCell id="V1irA5ALW46rOHireJx6-46" value="N" style="text;strokeColor=none;fillColor=none;spacingLeft=4;spacingRight=4;overflow=hidden;rotatable=0;points=[[0,0.5],[1,0.5]];portConstraint=eastwest;fontSize=12;whiteSpace=wrap;html=1;" vertex="1" parent="1">
          <mxGeometry x="200" y="320" width="20" height="20" as="geometry" />
        </mxCell>
        <mxCell id="V1irA5ALW46rOHireJx6-47" value="1" style="text;strokeColor=none;fillColor=none;spacingLeft=4;spacingRight=4;overflow=hidden;rotatable=0;points=[[0,0.5],[1,0.5]];portConstraint=eastwest;fontSize=12;whiteSpace=wrap;html=1;" vertex="1" parent="1">
          <mxGeometry x="274" y="430" width="20" height="20" as="geometry" />
        </mxCell>
        <mxCell id="V1irA5ALW46rOHireJx6-51" style="edgeStyle=orthogonalEdgeStyle;rounded=0;orthogonalLoop=1;jettySize=auto;html=1;exitX=0.5;exitY=0;exitDx=0;exitDy=0;entryX=0.75;entryY=1;entryDx=0;entryDy=0;" edge="1" parent="1" source="V1irA5ALW46rOHireJx6-48" target="V1irA5ALW46rOHireJx6-39">
          <mxGeometry relative="1" as="geometry" />
        </mxCell>
        <mxCell id="V1irA5ALW46rOHireJx6-48" value="nome" style="ellipse;whiteSpace=wrap;html=1;align=center;" vertex="1" parent="1">
          <mxGeometry x="520" y="520" width="100" height="40" as="geometry" />
        </mxCell>
        <mxCell id="V1irA5ALW46rOHireJx6-49" value="codigo" style="ellipse;whiteSpace=wrap;html=1;align=center;fontStyle=4;" vertex="1" parent="1">
          <mxGeometry x="380" y="500" width="100" height="40" as="geometry" />
        </mxCell>
        <mxCell id="V1irA5ALW46rOHireJx6-50" style="edgeStyle=orthogonalEdgeStyle;rounded=0;orthogonalLoop=1;jettySize=auto;html=1;exitX=0.5;exitY=0;exitDx=0;exitDy=0;entryX=0.19;entryY=1.075;entryDx=0;entryDy=0;entryPerimeter=0;" edge="1" parent="1" source="V1irA5ALW46rOHireJx6-49" target="V1irA5ALW46rOHireJx6-39">
          <mxGeometry relative="1" as="geometry" />
        </mxCell>
        <mxCell id="V1irA5ALW46rOHireJx6-52" value="coordenado" style="shape=rhombus;perimeter=rhombusPerimeter;whiteSpace=wrap;html=1;align=center;" vertex="1" parent="1">
          <mxGeometry x="510" y="300" width="120" height="60" as="geometry" />
        </mxCell>
        <mxCell id="V1irA5ALW46rOHireJx6-53" value="gerente" style="whiteSpace=wrap;html=1;align=center;" vertex="1" parent="1">
          <mxGeometry x="690" y="320" width="100" height="40" as="geometry" />
        </mxCell>
        <mxCell id="V1irA5ALW46rOHireJx6-54" value="nome" style="ellipse;whiteSpace=wrap;html=1;align=center;" vertex="1" parent="1">
          <mxGeometry x="760" y="390" width="100" height="40" as="geometry" />
        </mxCell>
        <mxCell id="V1irA5ALW46rOHireJx6-56" style="edgeStyle=orthogonalEdgeStyle;rounded=0;orthogonalLoop=1;jettySize=auto;html=1;exitX=0.5;exitY=0;exitDx=0;exitDy=0;entryX=0.25;entryY=1;entryDx=0;entryDy=0;" edge="1" parent="1" source="V1irA5ALW46rOHireJx6-55" target="V1irA5ALW46rOHireJx6-53">
          <mxGeometry relative="1" as="geometry" />
        </mxCell>
        <mxCell id="V1irA5ALW46rOHireJx6-55" value="cpf" style="ellipse;whiteSpace=wrap;html=1;align=center;fontStyle=4;" vertex="1" parent="1">
          <mxGeometry x="640" y="390" width="100" height="40" as="geometry" />
        </mxCell>
        <mxCell id="V1irA5ALW46rOHireJx6-57" style="edgeStyle=orthogonalEdgeStyle;rounded=0;orthogonalLoop=1;jettySize=auto;html=1;exitX=0.5;exitY=0;exitDx=0;exitDy=0;entryX=0.645;entryY=1.027;entryDx=0;entryDy=0;entryPerimeter=0;" edge="1" parent="1" source="V1irA5ALW46rOHireJx6-54" target="V1irA5ALW46rOHireJx6-53">
          <mxGeometry relative="1" as="geometry" />
        </mxCell>
        <mxCell id="V1irA5ALW46rOHireJx6-58" value="" style="endArrow=none;html=1;rounded=0;entryX=0;entryY=0.5;entryDx=0;entryDy=0;exitX=0.5;exitY=0;exitDx=0;exitDy=0;" edge="1" parent="1" source="V1irA5ALW46rOHireJx6-39" target="V1irA5ALW46rOHireJx6-52">
          <mxGeometry relative="1" as="geometry">
            <mxPoint x="490" y="420" as="sourcePoint" />
            <mxPoint x="650" y="420" as="targetPoint" />
          </mxGeometry>
        </mxCell>
        <mxCell id="V1irA5ALW46rOHireJx6-59" value="" style="endArrow=none;html=1;rounded=0;entryX=0;entryY=0.25;entryDx=0;entryDy=0;" edge="1" parent="1" target="V1irA5ALW46rOHireJx6-53">
          <mxGeometry relative="1" as="geometry">
            <mxPoint x="630" y="329.55" as="sourcePoint" />
            <mxPoint x="790" y="329.55" as="targetPoint" />
          </mxGeometry>
        </mxCell>
        <mxCell id="V1irA5ALW46rOHireJx6-60" value="1" style="text;strokeColor=none;fillColor=none;spacingLeft=4;spacingRight=4;overflow=hidden;rotatable=0;points=[[0,0.5],[1,0.5]];portConstraint=eastwest;fontSize=12;whiteSpace=wrap;html=1;" vertex="1" parent="1">
          <mxGeometry x="430" y="440" width="20" height="20" as="geometry" />
        </mxCell>
        <mxCell id="V1irA5ALW46rOHireJx6-61" value="1" style="text;strokeColor=none;fillColor=none;spacingLeft=4;spacingRight=4;overflow=hidden;rotatable=0;points=[[0,0.5],[1,0.5]];portConstraint=eastwest;fontSize=12;whiteSpace=wrap;html=1;" vertex="1" parent="1">
          <mxGeometry x="490" y="350" width="20" height="20" as="geometry" />
        </mxCell>
        <mxCell id="V1irA5ALW46rOHireJx6-62" value="1" style="text;strokeColor=none;fillColor=none;spacingLeft=4;spacingRight=4;overflow=hidden;rotatable=0;points=[[0,0.5],[1,0.5]];portConstraint=eastwest;fontSize=12;whiteSpace=wrap;html=1;" vertex="1" parent="1">
          <mxGeometry x="670" y="310" width="20" height="20" as="geometry" />
        </mxCell>
        <mxCell id="V1irA5ALW46rOHireJx6-63" value="&lt;span style=&quot;font-size: 22px;&quot;&gt;Modelo LÃ³gico&lt;/span&gt;" style="text;html=1;align=center;verticalAlign=middle;whiteSpace=wrap;rounded=0;fillColor=#f8cecc;strokeColor=#b85450;" vertex="1" parent="1">
          <mxGeometry x="95" y="600" width="250" height="30" as="geometry" />
        </mxCell>
        <mxCell id="V1irA5ALW46rOHireJx6-64" value="cliente" style="swimlane;childLayout=stackLayout;horizontal=1;startSize=50;horizontalStack=0;rounded=1;fontSize=14;fontStyle=0;strokeWidth=2;resizeParent=0;resizeLast=1;shadow=0;dashed=0;align=center;arcSize=4;whiteSpace=wrap;html=1;" vertex="1" parent="1">
          <mxGeometry x="50" y="670" width="130" height="90" as="geometry" />
        </mxCell>
        <mxCell id="V1irA5ALW46rOHireJx6-65" value="cpf PK&lt;div&gt;nome&lt;/div&gt;" style="align=left;strokeColor=none;fillColor=none;spacingLeft=4;fontSize=12;verticalAlign=top;resizable=0;rotatable=0;part=1;html=1;" vertex="1" parent="V1irA5ALW46rOHireJx6-64">
          <mxGeometry y="50" width="130" height="40" as="geometry" />
        </mxCell>
        <mxCell id="V1irA5ALW46rOHireJx6-68" value="projeto" style="swimlane;childLayout=stackLayout;horizontal=1;startSize=50;horizontalStack=0;rounded=1;fontSize=14;fontStyle=0;strokeWidth=2;resizeParent=0;resizeLast=1;shadow=0;dashed=0;align=center;arcSize=4;whiteSpace=wrap;html=1;" vertex="1" parent="1">
          <mxGeometry x="230" y="670" width="130" height="140" as="geometry" />
        </mxCell>
        <mxCell id="V1irA5ALW46rOHireJx6-69" value="codigo PK&lt;div&gt;descricao&lt;/div&gt;&lt;div&gt;data&lt;/div&gt;&lt;div&gt;valor&lt;/div&gt;&lt;div&gt;cod_cliente FK&lt;/div&gt;" style="align=left;strokeColor=none;fillColor=none;spacingLeft=4;fontSize=12;verticalAlign=top;resizable=0;rotatable=0;part=1;html=1;" vertex="1" parent="V1irA5ALW46rOHireJx6-68">
          <mxGeometry y="50" width="130" height="90" as="geometry" />
        </mxCell>
        <mxCell id="V1irA5ALW46rOHireJx6-70" value="funcionario" style="swimlane;childLayout=stackLayout;horizontal=1;startSize=50;horizontalStack=0;rounded=1;fontSize=14;fontStyle=0;strokeWidth=2;resizeParent=0;resizeLast=1;shadow=0;dashed=0;align=center;arcSize=4;whiteSpace=wrap;html=1;" vertex="1" parent="1">
          <mxGeometry x="630" y="660" width="110" height="190" as="geometry" />
        </mxCell>
        <mxCell id="V1irA5ALW46rOHireJx6-71" value="cpf PK&lt;div&gt;nome&lt;/div&gt;&lt;div&gt;endereco&lt;/div&gt;&lt;div&gt;cidade&lt;/div&gt;&lt;div&gt;estado&lt;/div&gt;&lt;div&gt;telefone&lt;/div&gt;&lt;div&gt;cargo&lt;/div&gt;&lt;div&gt;salario&lt;/div&gt;&lt;div&gt;codigo_setor FK&lt;/div&gt;" style="align=left;strokeColor=none;fillColor=none;spacingLeft=4;fontSize=12;verticalAlign=top;resizable=0;rotatable=0;part=1;html=1;" vertex="1" parent="V1irA5ALW46rOHireJx6-70">
          <mxGeometry y="50" width="110" height="140" as="geometry" />
        </mxCell>
        <mxCell id="V1irA5ALW46rOHireJx6-75" value="projeto_funcionario" style="swimlane;childLayout=stackLayout;horizontal=1;startSize=50;horizontalStack=0;rounded=1;fontSize=14;fontStyle=0;strokeWidth=2;resizeParent=0;resizeLast=1;shadow=0;dashed=0;align=center;arcSize=4;whiteSpace=wrap;html=1;" vertex="1" parent="1">
          <mxGeometry x="420" y="685" width="130" height="105" as="geometry" />
        </mxCell>
        <mxCell id="V1irA5ALW46rOHireJx6-76" value="cod_projeto PK&lt;div&gt;cod_funcionario PK&lt;/div&gt;" style="align=left;strokeColor=none;fillColor=none;spacingLeft=4;fontSize=12;verticalAlign=top;resizable=0;rotatable=0;part=1;html=1;" vertex="1" parent="V1irA5ALW46rOHireJx6-75">
          <mxGeometry y="50" width="130" height="55" as="geometry" />
        </mxCell>
        <mxCell id="V1irA5ALW46rOHireJx6-77" value="" style="edgeStyle=entityRelationEdgeStyle;fontSize=12;html=1;endArrow=ERoneToMany;rounded=0;entryX=0;entryY=0.25;entryDx=0;entryDy=0;" edge="1" parent="1">
          <mxGeometry width="100" height="100" relative="1" as="geometry">
            <mxPoint x="180" y="725" as="sourcePoint" />
            <mxPoint x="230" y="745" as="targetPoint" />
            <Array as="points">
              <mxPoint x="220" y="795" />
            </Array>
          </mxGeometry>
        </mxCell>
        <mxCell id="V1irA5ALW46rOHireJx6-74" value="" style="edgeStyle=entityRelationEdgeStyle;fontSize=12;html=1;endArrow=ERoneToMany;rounded=0;entryX=1;entryY=0.19;entryDx=0;entryDy=0;exitX=-0.007;exitY=0.425;exitDx=0;exitDy=0;exitPerimeter=0;entryPerimeter=0;" edge="1" parent="1" source="V1irA5ALW46rOHireJx6-76" target="V1irA5ALW46rOHireJx6-69">
          <mxGeometry width="100" height="100" relative="1" as="geometry">
            <mxPoint x="360" y="725" as="sourcePoint" />
            <mxPoint x="410" y="745" as="targetPoint" />
          </mxGeometry>
        </mxCell>
        <mxCell id="V1irA5ALW46rOHireJx6-78" value="" style="edgeStyle=entityRelationEdgeStyle;fontSize=12;html=1;endArrow=ERoneToMany;rounded=0;entryX=-0.015;entryY=0.351;entryDx=0;entryDy=0;entryPerimeter=0;exitX=1;exitY=0.25;exitDx=0;exitDy=0;" edge="1" parent="1" source="V1irA5ALW46rOHireJx6-76" target="V1irA5ALW46rOHireJx6-71">
          <mxGeometry width="100" height="100" relative="1" as="geometry">
            <mxPoint x="590" y="780" as="sourcePoint" />
            <mxPoint x="500" y="817" as="targetPoint" />
          </mxGeometry>
        </mxCell>
        <mxCell id="V1irA5ALW46rOHireJx6-79" value="gerente" style="swimlane;childLayout=stackLayout;horizontal=1;startSize=50;horizontalStack=0;rounded=1;fontSize=14;fontStyle=0;strokeWidth=2;resizeParent=0;resizeLast=1;shadow=0;dashed=0;align=center;arcSize=4;whiteSpace=wrap;html=1;" vertex="1" parent="1">
          <mxGeometry x="315" y="865" width="105" height="110" as="geometry" />
        </mxCell>
        <mxCell id="V1irA5ALW46rOHireJx6-80" value="&lt;div&gt;cpf PK&lt;/div&gt;&lt;div&gt;nome&lt;/div&gt;&lt;div&gt;telefone&lt;/div&gt;" style="align=left;strokeColor=none;fillColor=none;spacingLeft=4;fontSize=12;verticalAlign=top;resizable=0;rotatable=0;part=1;html=1;" vertex="1" parent="V1irA5ALW46rOHireJx6-79">
          <mxGeometry y="50" width="105" height="60" as="geometry" />
        </mxCell>
        <mxCell id="V1irA5ALW46rOHireJx6-81" value="setor" style="swimlane;childLayout=stackLayout;horizontal=1;startSize=50;horizontalStack=0;rounded=1;fontSize=14;fontStyle=0;strokeWidth=2;resizeParent=0;resizeLast=1;shadow=0;dashed=0;align=center;arcSize=4;whiteSpace=wrap;html=1;" vertex="1" parent="1">
          <mxGeometry x="475" y="865" width="110" height="120" as="geometry" />
        </mxCell>
        <mxCell id="V1irA5ALW46rOHireJx6-82" value="&lt;div&gt;codigo PK&lt;/div&gt;&lt;div&gt;nome&amp;nbsp;&lt;/div&gt;&lt;div&gt;telefone&lt;/div&gt;&lt;div&gt;cpf_gerente FK&lt;/div&gt;" style="align=left;strokeColor=none;fillColor=none;spacingLeft=4;fontSize=12;verticalAlign=top;resizable=0;rotatable=0;part=1;html=1;" vertex="1" parent="V1irA5ALW46rOHireJx6-81">
          <mxGeometry y="50" width="110" height="70" as="geometry" />
        </mxCell>
        <mxCell id="V1irA5ALW46rOHireJx6-83" value="" style="edgeStyle=entityRelationEdgeStyle;fontSize=12;html=1;endArrow=ERoneToMany;rounded=0;exitX=1;exitY=0.25;exitDx=0;exitDy=0;entryX=-0.008;entryY=0.849;entryDx=0;entryDy=0;entryPerimeter=0;" edge="1" parent="1" source="V1irA5ALW46rOHireJx6-82" target="V1irA5ALW46rOHireJx6-71">
          <mxGeometry width="100" height="100" relative="1" as="geometry">
            <mxPoint x="450" y="840" as="sourcePoint" />
            <mxPoint x="550" y="740" as="targetPoint" />
            <Array as="points">
              <mxPoint x="360" y="830" />
            </Array>
          </mxGeometry>
        </mxCell>
        <mxCell id="V1irA5ALW46rOHireJx6-86" value="" style="edgeStyle=entityRelationEdgeStyle;fontSize=12;html=1;endArrow=ERmandOne;startArrow=ERmandOne;rounded=0;entryX=0.004;entryY=0.23;entryDx=0;entryDy=0;entryPerimeter=0;" edge="1" parent="1" target="V1irA5ALW46rOHireJx6-82">
          <mxGeometry width="100" height="100" relative="1" as="geometry">
            <mxPoint x="420" y="930" as="sourcePoint" />
            <mxPoint x="470" y="930" as="targetPoint" />
          </mxGeometry>
        </mxCell>
        <mxCell id="V1irA5ALW46rOHireJx6-87" value="&lt;span style=&quot;font-size: 22px;&quot;&gt;DicionÃ¡rio&lt;/span&gt;" style="text;html=1;align=center;verticalAlign=middle;whiteSpace=wrap;rounded=0;fillColor=#f8cecc;strokeColor=#b85450;" vertex="1" parent="1">
          <mxGeometry x="85" y="1040" width="250" height="30" as="geometry" />
        </mxCell>
      </root>
    </mxGraphModel>
  </diagram>
</mxfile>
